<mxfile host="app.diagrams.net" agent="Mozilla/5.0 (Windows NT 10.0; Win64; x64) AppleWebKit/537.36 (KHTML, like Gecko) Chrome/131.0.0.0 Safari/537.36" version="25.0.3">
  <diagram name="Page-1" id="KARvSmfpHkjiAUMv4fuQ">
    <mxGraphModel dx="1434" dy="772" grid="1" gridSize="10" guides="1" tooltips="1" connect="1" arrows="1" fold="1" page="1" pageScale="1" pageWidth="850" pageHeight="1100" math="0" shadow="0">
      <root>
        <mxCell id="0" />
        <mxCell id="1" parent="0" />
        <mxCell id="ttBJUNCnjP5zw8l4qacc-23" value="" style="rounded=1;whiteSpace=wrap;html=1;fillColor=#d5e8d4;strokeColor=#82b366;textShadow=1;shadow=1;fontColor=default;fontStyle=1" vertex="1" parent="1">
          <mxGeometry x="715" y="450" width="120" height="30" as="geometry" />
        </mxCell>
        <mxCell id="ttBJUNCnjP5zw8l4qacc-24" value="" style="rounded=1;whiteSpace=wrap;html=1;fillColor=#dae8fc;strokeColor=#6c8ebf;textShadow=0;shadow=1;fontColor=default;fontStyle=1" vertex="1" parent="1">
          <mxGeometry x="715" y="530" width="120" height="30" as="geometry" />
        </mxCell>
        <mxCell id="ttBJUNCnjP5zw8l4qacc-25" value="" style="endArrow=classic;html=1;rounded=0;dashed=1;" edge="1" parent="1">
          <mxGeometry width="50" height="50" relative="1" as="geometry">
            <mxPoint x="715" y="400" as="sourcePoint" />
            <mxPoint x="835" y="400" as="targetPoint" />
          </mxGeometry>
        </mxCell>
        <mxCell id="ttBJUNCnjP5zw8l4qacc-26" value="" style="endArrow=classic;html=1;rounded=0;" edge="1" parent="1">
          <mxGeometry width="50" height="50" relative="1" as="geometry">
            <mxPoint x="715" y="360" as="sourcePoint" />
            <mxPoint x="835" y="360" as="targetPoint" />
          </mxGeometry>
        </mxCell>
        <mxCell id="ttBJUNCnjP5zw8l4qacc-27" value="Sync" style="text;html=1;align=center;verticalAlign=middle;whiteSpace=wrap;rounded=0;" vertex="1" parent="1">
          <mxGeometry x="745" y="330" width="60" height="30" as="geometry" />
        </mxCell>
        <mxCell id="ttBJUNCnjP5zw8l4qacc-28" value="KEYS" style="text;html=1;align=center;verticalAlign=middle;whiteSpace=wrap;rounded=0;fontStyle=5" vertex="1" parent="1">
          <mxGeometry x="745" y="280" width="60" height="30" as="geometry" />
        </mxCell>
        <mxCell id="ttBJUNCnjP5zw8l4qacc-29" value="Async" style="text;html=1;align=center;verticalAlign=middle;whiteSpace=wrap;rounded=0;" vertex="1" parent="1">
          <mxGeometry x="745" y="370" width="60" height="30" as="geometry" />
        </mxCell>
        <mxCell id="ttBJUNCnjP5zw8l4qacc-30" value="Internal Service" style="text;html=1;align=center;verticalAlign=middle;whiteSpace=wrap;rounded=0;" vertex="1" parent="1">
          <mxGeometry x="730" y="430" width="90" as="geometry" />
        </mxCell>
        <mxCell id="ttBJUNCnjP5zw8l4qacc-31" value="External Service" style="text;html=1;align=center;verticalAlign=middle;whiteSpace=wrap;rounded=0;" vertex="1" parent="1">
          <mxGeometry x="730" y="500" width="90" height="30" as="geometry" />
        </mxCell>
        <mxCell id="ttBJUNCnjP5zw8l4qacc-32" value="Project Allocation Microservices - Data Flow" style="text;html=1;align=center;verticalAlign=middle;whiteSpace=wrap;rounded=0;fontStyle=1;fontSize=14;fontColor=#990000;" vertex="1" parent="1">
          <mxGeometry x="70" y="140" width="310" height="20" as="geometry" />
        </mxCell>
        <mxCell id="ttBJUNCnjP5zw8l4qacc-48" style="edgeStyle=orthogonalEdgeStyle;rounded=0;orthogonalLoop=1;jettySize=auto;html=1;entryX=0.5;entryY=1;entryDx=0;entryDy=0;" edge="1" parent="1" source="ttBJUNCnjP5zw8l4qacc-38" target="ttBJUNCnjP5zw8l4qacc-46">
          <mxGeometry relative="1" as="geometry">
            <mxPoint x="395" y="320" as="sourcePoint" />
            <Array as="points">
              <mxPoint x="505" y="320" />
            </Array>
          </mxGeometry>
        </mxCell>
        <mxCell id="ttBJUNCnjP5zw8l4qacc-50" style="edgeStyle=orthogonalEdgeStyle;rounded=0;orthogonalLoop=1;jettySize=auto;html=1;dashed=1;" edge="1" parent="1" source="ttBJUNCnjP5zw8l4qacc-38" target="ttBJUNCnjP5zw8l4qacc-44">
          <mxGeometry relative="1" as="geometry" />
        </mxCell>
        <mxCell id="ttBJUNCnjP5zw8l4qacc-95" value="Allocation&lt;div&gt;Events&lt;/div&gt;" style="edgeLabel;html=1;align=center;verticalAlign=middle;resizable=0;points=[];" vertex="1" connectable="0" parent="ttBJUNCnjP5zw8l4qacc-50">
          <mxGeometry x="0.0133" relative="1" as="geometry">
            <mxPoint as="offset" />
          </mxGeometry>
        </mxCell>
        <mxCell id="ttBJUNCnjP5zw8l4qacc-67" style="edgeStyle=orthogonalEdgeStyle;rounded=0;orthogonalLoop=1;jettySize=auto;html=1;entryX=0.5;entryY=0;entryDx=0;entryDy=0;" edge="1" parent="1" source="ttBJUNCnjP5zw8l4qacc-38" target="ttBJUNCnjP5zw8l4qacc-47">
          <mxGeometry relative="1" as="geometry" />
        </mxCell>
        <mxCell id="ttBJUNCnjP5zw8l4qacc-93" value="Allocation&lt;div&gt;Data&lt;/div&gt;" style="edgeLabel;html=1;align=center;verticalAlign=middle;resizable=0;points=[];" vertex="1" connectable="0" parent="ttBJUNCnjP5zw8l4qacc-67">
          <mxGeometry x="-0.2947" relative="1" as="geometry">
            <mxPoint as="offset" />
          </mxGeometry>
        </mxCell>
        <mxCell id="ttBJUNCnjP5zw8l4qacc-88" style="edgeStyle=orthogonalEdgeStyle;rounded=0;orthogonalLoop=1;jettySize=auto;html=1;entryX=1;entryY=0.75;entryDx=0;entryDy=0;" edge="1" parent="1" source="ttBJUNCnjP5zw8l4qacc-38" target="ttBJUNCnjP5zw8l4qacc-86">
          <mxGeometry relative="1" as="geometry">
            <Array as="points">
              <mxPoint x="200" y="335" />
              <mxPoint x="200" y="335" />
            </Array>
          </mxGeometry>
        </mxCell>
        <mxCell id="ttBJUNCnjP5zw8l4qacc-38" value="Project Allocation Microservice" style="rounded=1;whiteSpace=wrap;html=1;fillColor=#d5e8d4;strokeColor=#82b366;textShadow=0;shadow=1;fontColor=default;fontStyle=1" vertex="1" parent="1">
          <mxGeometry x="240" y="290" width="120" height="60" as="geometry" />
        </mxCell>
        <mxCell id="ttBJUNCnjP5zw8l4qacc-40" value="Email Microservice" style="rounded=1;whiteSpace=wrap;html=1;fillColor=#d5e8d4;strokeColor=#82b366;textShadow=0;shadow=1;fontColor=default;fontStyle=1" vertex="1" parent="1">
          <mxGeometry x="240" y="560" width="120" height="60" as="geometry" />
        </mxCell>
        <mxCell id="ttBJUNCnjP5zw8l4qacc-51" style="edgeStyle=orthogonalEdgeStyle;rounded=0;orthogonalLoop=1;jettySize=auto;html=1;entryX=0.5;entryY=0;entryDx=0;entryDy=0;dashed=1;" edge="1" parent="1" source="ttBJUNCnjP5zw8l4qacc-44" target="ttBJUNCnjP5zw8l4qacc-40">
          <mxGeometry relative="1" as="geometry" />
        </mxCell>
        <mxCell id="ttBJUNCnjP5zw8l4qacc-96" value="Allocation&lt;div&gt;Events&lt;/div&gt;" style="edgeLabel;html=1;align=center;verticalAlign=middle;resizable=0;points=[];" vertex="1" connectable="0" parent="ttBJUNCnjP5zw8l4qacc-51">
          <mxGeometry x="0.0133" y="-2" relative="1" as="geometry">
            <mxPoint as="offset" />
          </mxGeometry>
        </mxCell>
        <mxCell id="ttBJUNCnjP5zw8l4qacc-80" style="edgeStyle=orthogonalEdgeStyle;rounded=0;orthogonalLoop=1;jettySize=auto;html=1;entryX=0.5;entryY=1;entryDx=0;entryDy=0;dashed=1;" edge="1" parent="1" source="ttBJUNCnjP5zw8l4qacc-44" target="ttBJUNCnjP5zw8l4qacc-47">
          <mxGeometry relative="1" as="geometry" />
        </mxCell>
        <mxCell id="ttBJUNCnjP5zw8l4qacc-82" value="Data Update&lt;div&gt;Events&lt;/div&gt;" style="edgeLabel;html=1;align=center;verticalAlign=middle;resizable=0;points=[];" vertex="1" connectable="0" parent="ttBJUNCnjP5zw8l4qacc-80">
          <mxGeometry x="-0.2" relative="1" as="geometry">
            <mxPoint as="offset" />
          </mxGeometry>
        </mxCell>
        <mxCell id="ttBJUNCnjP5zw8l4qacc-44" value="Kafka Cluster" style="rounded=1;whiteSpace=wrap;html=1;fillColor=#d5e8d4;strokeColor=#82b366;textShadow=0;shadow=1;fontColor=default;fontStyle=1" vertex="1" parent="1">
          <mxGeometry x="240" y="425" width="120" height="60" as="geometry" />
        </mxCell>
        <mxCell id="ttBJUNCnjP5zw8l4qacc-46" value="MongoDB" style="rounded=1;whiteSpace=wrap;html=1;fillColor=#d5e8d4;strokeColor=#82b366;textShadow=0;shadow=1;fontColor=default;fontStyle=1" vertex="1" parent="1">
          <mxGeometry x="445" y="210" width="120" height="60" as="geometry" />
        </mxCell>
        <mxCell id="ttBJUNCnjP5zw8l4qacc-47" value="Redis Cache&lt;div&gt;Microservice&lt;/div&gt;" style="rounded=1;whiteSpace=wrap;html=1;fillColor=#d5e8d4;strokeColor=#82b366;textShadow=0;shadow=1;fontColor=default;fontStyle=1" vertex="1" parent="1">
          <mxGeometry x="445" y="365" width="120" height="60" as="geometry" />
        </mxCell>
        <mxCell id="ttBJUNCnjP5zw8l4qacc-87" style="edgeStyle=orthogonalEdgeStyle;rounded=0;orthogonalLoop=1;jettySize=auto;html=1;entryX=0;entryY=0.25;entryDx=0;entryDy=0;" edge="1" parent="1" target="ttBJUNCnjP5zw8l4qacc-38">
          <mxGeometry relative="1" as="geometry">
            <mxPoint x="135" y="303" as="sourcePoint" />
            <mxPoint x="225" y="303" as="targetPoint" />
          </mxGeometry>
        </mxCell>
        <mxCell id="ttBJUNCnjP5zw8l4qacc-91" value="Allocation&lt;div&gt;Actions&lt;/div&gt;" style="edgeLabel;html=1;align=center;verticalAlign=middle;resizable=0;points=[];" vertex="1" connectable="0" parent="ttBJUNCnjP5zw8l4qacc-87">
          <mxGeometry x="-0.2" y="1" relative="1" as="geometry">
            <mxPoint x="-2" as="offset" />
          </mxGeometry>
        </mxCell>
        <mxCell id="ttBJUNCnjP5zw8l4qacc-86" value="Client" style="rounded=1;whiteSpace=wrap;html=1;fillColor=#dae8fc;strokeColor=#6c8ebf;textShadow=0;shadow=1;fontColor=default;fontStyle=1" vertex="1" parent="1">
          <mxGeometry x="15" y="290" width="120" height="60" as="geometry" />
        </mxCell>
        <mxCell id="ttBJUNCnjP5zw8l4qacc-92" value="" style="endArrow=none;html=1;rounded=0;strokeColor=#CCCCCC;strokeWidth=2;" edge="1" parent="1">
          <mxGeometry width="50" height="50" relative="1" as="geometry">
            <mxPoint x="680" y="620" as="sourcePoint" />
            <mxPoint x="680" y="210" as="targetPoint" />
          </mxGeometry>
        </mxCell>
      </root>
    </mxGraphModel>
  </diagram>
</mxfile>
